<?xml version="1.0" encoding="utf-8"?>
<!-- Generator: Adobe Illustrator 23.0.1, SVG Export Plug-In . SVG Version: 6.00 Build 0)  -->
<svg version="1.1" id="Layer_1" xmlns="http://www.w3.org/2000/svg" xmlns:xlink="http://www.w3.org/1999/xlink" x="0px" y="0px"
	 viewBox="0 0 50 30" style="enable-background:new 0 0 50 30;" xml:space="preserve">
<style type="text/css">
	.st0{clip-path:url(#SVGID_2_);}
	.st1{fill:#333333;}
	.st2{fill:#1A1A1A;}
	.st3{filter:url(#Adobe_OpacityMaskFilter);}
	.st4{filter:url(#Adobe_OpacityMaskFilter_1_);}
	.st5{mask:url(#SVGID_3_);fill:url(#SVGID_4_);}
	.st6{opacity:0.8;fill:url(#SVGID_5_);}
	.st7{filter:url(#Adobe_OpacityMaskFilter_2_);}
	.st8{filter:url(#Adobe_OpacityMaskFilter_3_);}
	.st9{mask:url(#SVGID_6_);fill:url(#SVGID_7_);}
	.st10{opacity:0.8;fill:url(#SVGID_8_);}
	.st11{filter:url(#Adobe_OpacityMaskFilter_4_);}
	.st12{filter:url(#Adobe_OpacityMaskFilter_5_);}
	.st13{mask:url(#SVGID_9_);fill:url(#SVGID_10_);}
	.st14{opacity:0.8;fill:url(#SVGID_11_);}
</style>
<g>
	<g>
		<defs>
			<rect id="SVGID_1_" width="50" height="30"/>
		</defs>
		<clipPath id="SVGID_2_">
			<use xlink:href="#SVGID_1_"  style="overflow:visible;"/>
		</clipPath>
		<g class="st0">
			<g>
				<g>
					<g>
						<rect x="-0.87" y="-0.84" class="st1" width="51.73" height="0.48"/>
					</g>
				</g>
				<g>
					<g>
						<rect x="-0.87" y="-1.32" class="st2" width="51.73" height="0.48"/>
					</g>
				</g>
			</g>
			<g>
				<g>
					<g>
						<rect x="-0.87" y="0.12" class="st1" width="51.73" height="0.48"/>
					</g>
				</g>
				<g>
					<g>
						<rect x="-0.87" y="-0.36" class="st2" width="51.73" height="0.48"/>
					</g>
				</g>
			</g>
			<g>
				<g>
					<g>
						<rect x="-0.87" y="1.08" class="st1" width="51.73" height="0.48"/>
					</g>
				</g>
				<g>
					<g>
						<rect x="-0.87" y="0.6" class="st2" width="51.73" height="0.48"/>
					</g>
				</g>
			</g>
			<g>
				<g>
					<g>
						<rect x="-0.87" y="2.04" class="st1" width="51.73" height="0.48"/>
					</g>
				</g>
				<g>
					<g>
						<rect x="-0.87" y="1.56" class="st2" width="51.73" height="0.48"/>
					</g>
				</g>
			</g>
			<g>
				<g>
					<g>
						<rect x="-0.87" y="3" class="st1" width="51.73" height="0.48"/>
					</g>
				</g>
				<g>
					<g>
						<rect x="-0.87" y="2.52" class="st2" width="51.73" height="0.48"/>
					</g>
				</g>
			</g>
			<g>
				<g>
					<g>
						<rect x="-0.87" y="3.96" class="st1" width="51.73" height="0.48"/>
					</g>
				</g>
				<g>
					<g>
						<rect x="-0.87" y="3.48" class="st2" width="51.73" height="0.48"/>
					</g>
				</g>
			</g>
			<g>
				<g>
					<g>
						<rect x="-0.87" y="4.92" class="st1" width="51.73" height="0.48"/>
					</g>
				</g>
				<g>
					<g>
						<rect x="-0.87" y="4.44" class="st2" width="51.73" height="0.48"/>
					</g>
				</g>
			</g>
			<g>
				<g>
					<g>
						<rect x="-0.87" y="5.88" class="st1" width="51.73" height="0.48"/>
					</g>
				</g>
				<g>
					<g>
						<rect x="-0.87" y="5.4" class="st2" width="51.73" height="0.48"/>
					</g>
				</g>
			</g>
			<g>
				<g>
					<g>
						<rect x="-0.87" y="6.84" class="st1" width="51.73" height="0.48"/>
					</g>
				</g>
				<g>
					<g>
						<rect x="-0.87" y="6.36" class="st2" width="51.73" height="0.48"/>
					</g>
				</g>
			</g>
			<g>
				<g>
					<g>
						<rect x="-0.87" y="7.8" class="st1" width="51.73" height="0.48"/>
					</g>
				</g>
				<g>
					<g>
						<rect x="-0.87" y="7.32" class="st2" width="51.73" height="0.48"/>
					</g>
				</g>
			</g>
			<g>
				<g>
					<g>
						<rect x="-0.87" y="8.76" class="st1" width="51.73" height="0.48"/>
					</g>
				</g>
				<g>
					<g>
						<rect x="-0.87" y="8.28" class="st2" width="51.73" height="0.48"/>
					</g>
				</g>
			</g>
			<g>
				<g>
					<g>
						<rect x="-0.87" y="9.72" class="st1" width="51.73" height="0.48"/>
					</g>
				</g>
				<g>
					<g>
						<rect x="-0.87" y="9.24" class="st2" width="51.73" height="0.48"/>
					</g>
				</g>
			</g>
			<g>
				<g>
					<g>
						<rect x="-0.87" y="10.68" class="st1" width="51.73" height="0.48"/>
					</g>
				</g>
				<g>
					<g>
						<rect x="-0.87" y="10.2" class="st2" width="51.73" height="0.48"/>
					</g>
				</g>
			</g>
			<g>
				<g>
					<g>
						<rect x="-0.87" y="11.64" class="st1" width="51.73" height="0.48"/>
					</g>
				</g>
				<g>
					<g>
						<rect x="-0.87" y="11.16" class="st2" width="51.73" height="0.48"/>
					</g>
				</g>
			</g>
			<g>
				<g>
					<g>
						<rect x="-0.87" y="12.6" class="st1" width="51.73" height="0.48"/>
					</g>
				</g>
				<g>
					<g>
						<rect x="-0.87" y="12.12" class="st2" width="51.73" height="0.48"/>
					</g>
				</g>
			</g>
			<g>
				<g>
					<g>
						<rect x="-0.87" y="13.56" class="st1" width="51.73" height="0.48"/>
					</g>
				</g>
				<g>
					<g>
						<rect x="-0.87" y="13.08" class="st2" width="51.73" height="0.48"/>
					</g>
				</g>
			</g>
			<g>
				<g>
					<g>
						<rect x="-0.87" y="14.52" class="st1" width="51.73" height="0.48"/>
					</g>
				</g>
				<g>
					<g>
						<rect x="-0.87" y="14.04" class="st2" width="51.73" height="0.48"/>
					</g>
				</g>
			</g>
			<g>
				<g>
					<g>
						<rect x="-0.87" y="15.48" class="st1" width="51.73" height="0.48"/>
					</g>
				</g>
				<g>
					<g>
						<rect x="-0.87" y="15" class="st2" width="51.73" height="0.48"/>
					</g>
				</g>
			</g>
			<g>
				<g>
					<g>
						<rect x="-0.87" y="16.44" class="st1" width="51.73" height="0.48"/>
					</g>
				</g>
				<g>
					<g>
						<rect x="-0.87" y="15.96" class="st2" width="51.73" height="0.48"/>
					</g>
				</g>
			</g>
			<g>
				<g>
					<g>
						<rect x="-0.87" y="17.4" class="st1" width="51.73" height="0.48"/>
					</g>
				</g>
				<g>
					<g>
						<rect x="-0.87" y="16.92" class="st2" width="51.73" height="0.48"/>
					</g>
				</g>
			</g>
			<g>
				<g>
					<g>
						<rect x="-0.87" y="18.36" class="st1" width="51.73" height="0.48"/>
					</g>
				</g>
				<g>
					<g>
						<rect x="-0.87" y="17.88" class="st2" width="51.73" height="0.48"/>
					</g>
				</g>
			</g>
			<g>
				<g>
					<g>
						<rect x="-0.87" y="19.32" class="st1" width="51.73" height="0.48"/>
					</g>
				</g>
				<g>
					<g>
						<rect x="-0.87" y="18.84" class="st2" width="51.73" height="0.48"/>
					</g>
				</g>
			</g>
			<g>
				<g>
					<g>
						<rect x="-0.87" y="20.28" class="st1" width="51.73" height="0.48"/>
					</g>
				</g>
				<g>
					<g>
						<rect x="-0.87" y="19.8" class="st2" width="51.73" height="0.48"/>
					</g>
				</g>
			</g>
			<g>
				<g>
					<g>
						<rect x="-0.87" y="21.24" class="st1" width="51.73" height="0.48"/>
					</g>
				</g>
				<g>
					<g>
						<rect x="-0.87" y="20.76" class="st2" width="51.73" height="0.48"/>
					</g>
				</g>
			</g>
			<g>
				<g>
					<g>
						<rect x="-0.87" y="22.2" class="st1" width="51.73" height="0.48"/>
					</g>
				</g>
				<g>
					<g>
						<rect x="-0.87" y="21.72" class="st2" width="51.73" height="0.48"/>
					</g>
				</g>
			</g>
			<g>
				<g>
					<g>
						<rect x="-0.87" y="23.16" class="st1" width="51.73" height="0.48"/>
					</g>
				</g>
				<g>
					<g>
						<rect x="-0.87" y="22.68" class="st2" width="51.73" height="0.48"/>
					</g>
				</g>
			</g>
			<g>
				<g>
					<g>
						<rect x="-0.87" y="24.12" class="st1" width="51.73" height="0.48"/>
					</g>
				</g>
				<g>
					<g>
						<rect x="-0.87" y="23.64" class="st2" width="51.73" height="0.48"/>
					</g>
				</g>
			</g>
			<g>
				<g>
					<g>
						<rect x="-0.87" y="25.08" class="st1" width="51.73" height="0.48"/>
					</g>
				</g>
				<g>
					<g>
						<rect x="-0.87" y="24.6" class="st2" width="51.73" height="0.48"/>
					</g>
				</g>
			</g>
			<g>
				<g>
					<g>
						<rect x="-0.87" y="26.04" class="st1" width="51.73" height="0.48"/>
					</g>
				</g>
				<g>
					<g>
						<rect x="-0.87" y="25.56" class="st2" width="51.73" height="0.48"/>
					</g>
				</g>
			</g>
			<g>
				<g>
					<g>
						<rect x="-0.87" y="27" class="st1" width="51.73" height="0.48"/>
					</g>
				</g>
				<g>
					<g>
						<rect x="-0.87" y="26.52" class="st2" width="51.73" height="0.48"/>
					</g>
				</g>
			</g>
			<g>
				<g>
					<g>
						<rect x="-0.87" y="27.96" class="st1" width="51.73" height="0.48"/>
					</g>
				</g>
				<g>
					<g>
						<rect x="-0.87" y="27.48" class="st2" width="51.73" height="0.48"/>
					</g>
				</g>
			</g>
			<g>
				<g>
					<g>
						<rect x="-0.87" y="28.92" class="st1" width="51.73" height="0.48"/>
					</g>
				</g>
				<g>
					<g>
						<rect x="-0.87" y="28.44" class="st2" width="51.73" height="0.48"/>
					</g>
				</g>
			</g>
			<g>
				<g>
					<g>
						<rect x="-0.87" y="29.88" class="st1" width="51.73" height="0.48"/>
					</g>
				</g>
				<g>
					<g>
						<rect x="-0.87" y="29.4" class="st2" width="51.73" height="0.48"/>
					</g>
				</g>
			</g>
			<g>
				<g>
					<g>
						<rect x="-0.87" y="30.84" class="st1" width="51.73" height="0.48"/>
					</g>
				</g>
				<g>
					<g>
						<rect x="-0.87" y="30.36" class="st2" width="51.73" height="0.48"/>
					</g>
				</g>
			</g>
		</g>
	</g>
	<defs>
		<filter id="Adobe_OpacityMaskFilter" filterUnits="userSpaceOnUse" x="0" y="0" width="50" height="30">
			<feFlood  style="flood-color:white;flood-opacity:1" result="back"/>
			<feBlend  in="SourceGraphic" in2="back" mode="normal"/>
		</filter>
	</defs>
	<mask maskUnits="userSpaceOnUse" x="0" y="0" width="50" height="30" id="SVGID_3_">
		<g class="st3">
			<defs>
				<filter id="Adobe_OpacityMaskFilter_1_" filterUnits="userSpaceOnUse" x="0" y="0" width="50" height="30">
					<feFlood  style="flood-color:white;flood-opacity:1" result="back"/>
					<feBlend  in="SourceGraphic" in2="back" mode="normal"/>
				</filter>
			</defs>
			<mask maskUnits="userSpaceOnUse" x="0" y="0" width="50" height="30" id="SVGID_3_">
				<g class="st4">
				</g>
			</mask>
			<linearGradient id="SVGID_4_" gradientUnits="userSpaceOnUse" x1="0" y1="15" x2="50" y2="15">
				<stop  offset="0" style="stop-color:#000000"/>
				<stop  offset="1" style="stop-color:#FFFFFF"/>
			</linearGradient>
			<rect class="st5" width="50" height="30"/>
		</g>
	</mask>
	<linearGradient id="SVGID_5_" gradientUnits="userSpaceOnUse" x1="0" y1="15" x2="50" y2="15">
		<stop  offset="0" style="stop-color:#FFFFFF"/>
		<stop  offset="1" style="stop-color:#000000"/>
	</linearGradient>
	<rect class="st6" width="50" height="30"/>
	<defs>
		<filter id="Adobe_OpacityMaskFilter_2_" filterUnits="userSpaceOnUse" x="0" y="0" width="50" height="30">
			<feFlood  style="flood-color:white;flood-opacity:1" result="back"/>
			<feBlend  in="SourceGraphic" in2="back" mode="normal"/>
		</filter>
	</defs>
	<mask maskUnits="userSpaceOnUse" x="0" y="0" width="50" height="30" id="SVGID_6_">
		<g class="st7">
			<defs>
				<filter id="Adobe_OpacityMaskFilter_3_" filterUnits="userSpaceOnUse" x="0" y="0" width="50" height="30">
					<feFlood  style="flood-color:white;flood-opacity:1" result="back"/>
					<feBlend  in="SourceGraphic" in2="back" mode="normal"/>
				</filter>
			</defs>
			<mask maskUnits="userSpaceOnUse" x="0" y="0" width="50" height="30" id="SVGID_6_">
				<g class="st8">
				</g>
			</mask>
			
				<linearGradient id="SVGID_7_" gradientUnits="userSpaceOnUse" x1="0" y1="15" x2="50" y2="15" gradientTransform="matrix(-1 0 0 1 50 0)">
				<stop  offset="0" style="stop-color:#000000"/>
				<stop  offset="1" style="stop-color:#FFFFFF"/>
			</linearGradient>
			<polygon class="st9" points="0,30 50,30 50,0 0,0 			"/>
		</g>
	</mask>
	
		<linearGradient id="SVGID_8_" gradientUnits="userSpaceOnUse" x1="0" y1="15" x2="50" y2="15" gradientTransform="matrix(-1 0 0 1 50 0)">
		<stop  offset="0" style="stop-color:#FFFFFF"/>
		<stop  offset="1" style="stop-color:#000000"/>
	</linearGradient>
	<polygon class="st10" points="0,30 50,30 50,0 0,0 	"/>
	<defs>
		<filter id="Adobe_OpacityMaskFilter_4_" filterUnits="userSpaceOnUse" x="0" y="0" width="50" height="30">
			<feFlood  style="flood-color:white;flood-opacity:1" result="back"/>
			<feBlend  in="SourceGraphic" in2="back" mode="normal"/>
		</filter>
	</defs>
	<mask maskUnits="userSpaceOnUse" x="0" y="0" width="50" height="30" id="SVGID_9_">
		<g class="st11">
			<defs>
				<filter id="Adobe_OpacityMaskFilter_5_" filterUnits="userSpaceOnUse" x="0" y="0" width="50" height="30">
					<feFlood  style="flood-color:white;flood-opacity:1" result="back"/>
					<feBlend  in="SourceGraphic" in2="back" mode="normal"/>
				</filter>
			</defs>
			<mask maskUnits="userSpaceOnUse" x="0" y="0" width="50" height="30" id="SVGID_9_">
				<g class="st12">
				</g>
			</mask>
			
				<linearGradient id="SVGID_10_" gradientUnits="userSpaceOnUse" x1="25" y1="29.89" x2="25" y2="0.1195" gradientTransform="matrix(1 0 0 -1 0 30)">
				<stop  offset="0" style="stop-color:#000000"/>
				<stop  offset="1" style="stop-color:#FFFFFF"/>
			</linearGradient>
			<polygon class="st13" points="0,0 50,0 50,30 0,30 			"/>
		</g>
	</mask>
	
		<linearGradient id="SVGID_11_" gradientUnits="userSpaceOnUse" x1="25" y1="29.89" x2="25" y2="0.1195" gradientTransform="matrix(1 0 0 -1 0 30)">
		<stop  offset="0" style="stop-color:#FFFFFF"/>
		<stop  offset="1" style="stop-color:#000000"/>
	</linearGradient>
	<polygon class="st14" points="0,0 50,0 50,30 0,30 	"/>
</g>
</svg>
